<svg xmlns="http://www.w3.org/2000/svg" data-name="ICON Black" viewBox="0 0 32 40" x="0px" y="0px"><title>cocktail</title><path d="M22.48,2.5A6,6,0,0,0,16.53,8H10.14L9.06,6.58A1.89,1.89,0,0,0,6.79,3.71a1.9,1.9,0,0,0-1,2.49,1.84,1.84,0,0,0,1,1,1.9,1.9,0,0,0,.7.14,1.82,1.82,0,0,0,.72-.15l.6.78H4a.5.5,0,0,0-.37.83l9.1,10.45v7.88a.5.5,0,0,0,1,0V19.26l9.1-10.45a.51.51,0,0,0,.08-.54A.51.51,0,0,0,22.48,8H17.55a5,5,0,1,1,4.93,5.48,5,5,0,0,1-1.28-.16.49.49,0,0,0-.61.35.5.5,0,0,0,.35.61,5.82,5.82,0,0,0,1.54.2,6,6,0,1,0,0-12ZM7.22,6.28a.86.86,0,0,1-.49-.48.89.89,0,0,1,.46-1.17.94.94,0,0,1,.36-.08.9.9,0,0,1,.82.54A.89.89,0,0,1,7.9,6.27.85.85,0,0,1,7.22,6.28Zm6,12-5.83-6.7a12.72,12.72,0,0,0,2,.16c.26,0,.52,0,.78,0a8.14,8.14,0,0,0,2.22-.46,8.2,8.2,0,0,1,1.8-.43,9.89,9.89,0,0,1,3.76.32.51.51,0,0,0,.62-.35.52.52,0,0,0-.35-.62,10.88,10.88,0,0,0-4.14-.34,9.47,9.47,0,0,0-2,.46,7.1,7.1,0,0,1-2,.42,12.35,12.35,0,0,1-3.73-.35L5.13,9H21.39ZM18.58,29a.5.5,0,0,1-.5.5H8.44a.5.5,0,1,1,0-1h9.64A.5.5,0,0,1,18.58,29Z"/><text x="0" y="47" fill="#000000" font-size="5px" font-weight="bold" font-family="'Helvetica Neue', Helvetica, Arial-Unicode, Arial, Sans-serif">Created by Philipp Petzka</text><text x="0" y="52" fill="#000000" font-size="5px" font-weight="bold" font-family="'Helvetica Neue', Helvetica, Arial-Unicode, Arial, Sans-serif">from the Noun Project</text></svg>