<?xml version="1.0" encoding="UTF-8" standalone="no"?>
<svg
   xmlns:dc="http://purl.org/dc/elements/1.1/"
   xmlns:cc="http://creativecommons.org/ns#"
   xmlns:rdf="http://www.w3.org/1999/02/22-rdf-syntax-ns#"
   xmlns:svg="http://www.w3.org/2000/svg"
   xmlns="http://www.w3.org/2000/svg"
   xmlns:sodipodi="http://sodipodi.sourceforge.net/DTD/sodipodi-0.dtd"
   xmlns:inkscape="http://www.inkscape.org/namespaces/inkscape"
   version="1.1"
   x="0px"
   y="0px"
   viewBox="0 0 100 125"
   enable-background="new 0 0 100 100"
   xml:space="preserve"
   id="svg3733"
   sodipodi:docname="music.svg"
   inkscape:version="0.92.4 (5da689c313, 2019-01-14)"><metadata
     id="metadata3739"><rdf:RDF><cc:Work
         rdf:about=""><dc:format>image/svg+xml</dc:format><dc:type
           rdf:resource="http://purl.org/dc/dcmitype/StillImage" /><dc:title></dc:title></cc:Work></rdf:RDF></metadata><defs
     id="defs3737" /><sodipodi:namedview
     pagecolor="#ffffff"
     bordercolor="#666666"
     borderopacity="1"
     objecttolerance="10"
     gridtolerance="10"
     guidetolerance="10"
     inkscape:pageopacity="0"
     inkscape:pageshadow="2"
     inkscape:window-width="1920"
     inkscape:window-height="1001"
     id="namedview3735"
     showgrid="false"
     inkscape:zoom="6.464"
     inkscape:cx="50"
     inkscape:cy="62.5"
     inkscape:window-x="-9"
     inkscape:window-y="-9"
     inkscape:window-maximized="1"
     inkscape:current-layer="svg3733" /><path
     d="M94.381,68.132c-0.006-0.018-0.01-0.036-0.015-0.054V2.752c0-0.515-0.245-1-0.659-1.308  c-0.416-0.307-0.952-0.401-1.446-0.253L38.137,17.39c-0.691,0.207-1.166,0.841-1.166,1.561v54.308  c-4.088-4.293-11.039-6.185-17.999-4.326C9.443,71.477,3.452,80.102,5.619,88.159c1.065,3.958,3.896,7.172,7.973,9.049  c2.406,1.108,5.078,1.669,7.825,1.669c1.792,0,3.615-0.239,5.417-0.719c4.563-1.219,8.467-3.853,10.99-7.419  c2.541-3.589,3.395-7.695,2.419-11.589V36.361l50.853-15.22v41.222c-1.28-1.327-2.858-2.439-4.687-3.281  c-3.976-1.831-8.678-2.168-13.241-0.949c-4.563,1.218-8.467,3.853-10.991,7.418c-2.589,3.657-3.428,7.85-2.363,11.808  c1.755,6.528,8.335,10.711,15.838,10.711c1.758,0,3.566-0.229,5.376-0.713C90.557,84.814,96.548,76.188,94.381,68.132z   M35.369,88.861c-2.076,2.944-5.319,5.127-9.13,6.149c-3.813,1.022-7.712,0.752-10.982-0.759c-3.168-1.464-5.357-3.927-6.163-6.935  c-1.694-6.322,3.241-13.157,11-15.237c1.532-0.41,3.06-0.605,4.541-0.605c6.021,0,11.246,3.226,12.605,8.3  C38.044,82.782,37.381,86.009,35.369,88.861z M40.442,32.959V20.163L91.109,4.942v12.797L40.442,32.959z M80.234,84.212  c-1.532,0.41-3.06,0.605-4.541,0.605c-6.021,0-11.246-3.226-12.605-8.299c-0.805-3.008-0.142-6.235,1.871-9.088  c2.076-2.944,5.319-5.127,9.131-6.149c1.52-0.407,3.053-0.609,4.555-0.609c2.266,0,4.46,0.459,6.427,1.368  c3.169,1.465,5.356,3.928,6.163,6.936C92.929,75.297,87.995,82.132,80.234,84.212z"
     id="path3727" /></svg>