<?xml version="1.0" encoding="UTF-8" standalone="no"?>
<svg
   xmlns:dc="http://purl.org/dc/elements/1.1/"
   xmlns:cc="http://creativecommons.org/ns#"
   xmlns:rdf="http://www.w3.org/1999/02/22-rdf-syntax-ns#"
   xmlns:svg="http://www.w3.org/2000/svg"
   xmlns="http://www.w3.org/2000/svg"
   xmlns:sodipodi="http://sodipodi.sourceforge.net/DTD/sodipodi-0.dtd"
   xmlns:inkscape="http://www.inkscape.org/namespaces/inkscape"
   version="1.1"
   x="0px"
   y="0px"
   viewBox="0 0 100 125"
   style="enable-background:new 0 0 100 100;"
   xml:space="preserve"
   id="svg8"
   sodipodi:docname="tech.svg"
   inkscape:version="0.92.4 (5da689c313, 2019-01-14)"><metadata
     id="metadata14"><rdf:RDF><cc:Work
         rdf:about=""><dc:format>image/svg+xml</dc:format><dc:type
           rdf:resource="http://purl.org/dc/dcmitype/StillImage" /><dc:title></dc:title></cc:Work></rdf:RDF></metadata><defs
     id="defs12" /><sodipodi:namedview
     pagecolor="#ffffff"
     bordercolor="#666666"
     borderopacity="1"
     objecttolerance="10"
     gridtolerance="10"
     guidetolerance="10"
     inkscape:pageopacity="0"
     inkscape:pageshadow="2"
     inkscape:window-width="1920"
     inkscape:window-height="1001"
     id="namedview10"
     showgrid="false"
     inkscape:zoom="3.776"
     inkscape:cx="129.81312"
     inkscape:cy="49.931394"
     inkscape:window-x="-9"
     inkscape:window-y="-9"
     inkscape:window-maximized="1"
     inkscape:current-layer="svg8" /><path
     d="M66.2,20.8c-3,0-5.4,2.4-5.4,5.4c0,2.4,1.6,4.5,3.8,5.1l0,15.3l-13,9.1l0-36.6c2.2-0.7,3.8-2.7,3.8-5.1c0-3-2.4-5.4-5.4-5.4  s-5.4,2.4-5.4,5.4c0,2.4,1.6,4.5,3.8,5.1l0,35.3c0,0,0,0,0,0l0,6.6l-13-9.1V38.4v-1.6c2.2-0.7,3.8-2.7,3.8-5.1c0-3-2.4-5.4-5.4-5.4  s-5.4,2.4-5.4,5.4c0,2.4,1.6,4.5,3.8,5.1l0,1.6l0,15.1l3.1,2.2l13,9.1v16c-2.2,0.7-3.8,2.7-3.8,5.1c0.1,3,2.5,5.4,5.5,5.4  s5.4-2.4,5.4-5.4c0-2.4-1.6-4.5-3.8-5.1V65.4v-5.9l16.2-11.3l0-16.9c2.2-0.7,3.8-2.7,3.8-5.1C71.6,23.2,69.2,20.8,66.2,20.8z   M31.6,31.6c0-1.2,1-2.2,2.2-2.2s2.2,1,2.2,2.2c0,1.2-1,2.2-2.2,2.2S31.6,32.9,31.6,31.6z M50,11.8c1.2,0,2.2,1,2.2,2.2  c0,1.2-1,2.2-2.2,2.2s-2.2-0.9-2.2-2.2C47.8,12.8,48.8,11.8,50,11.8z M52.2,85.9c0,1.2-1,2.2-2.2,2.2c-1.2,0-2.2-1-2.2-2.2  s1-2.2,2.2-2.2C51.2,83.7,52.2,84.7,52.2,85.9z M66.2,28.3C65,28.4,64,27.4,64,26.1c0-1.2,1-2.2,2.2-2.2c1.2,0,2.2,1,2.2,2.2  C68.4,27.3,67.4,28.3,66.2,28.3z"
     id="path2" /></svg>