<?xml version="1.0" encoding="UTF-8" standalone="no"?>
<svg
   xmlns:dc="http://purl.org/dc/elements/1.1/"
   xmlns:cc="http://creativecommons.org/ns#"
   xmlns:rdf="http://www.w3.org/1999/02/22-rdf-syntax-ns#"
   xmlns:svg="http://www.w3.org/2000/svg"
   xmlns="http://www.w3.org/2000/svg"
   xmlns:sodipodi="http://sodipodi.sourceforge.net/DTD/sodipodi-0.dtd"
   xmlns:inkscape="http://www.inkscape.org/namespaces/inkscape"
   version="1.1"
   x="0px"
   y="0px"
   viewBox="0 0 100 125"
   style="enable-background:new 0 0 100 100;"
   xml:space="preserve"
   id="svg18"
   sodipodi:docname="world.svg"
   inkscape:version="0.92.4 (5da689c313, 2019-01-14)"><metadata
     id="metadata24"><rdf:RDF><cc:Work
         rdf:about=""><dc:format>image/svg+xml</dc:format><dc:type
           rdf:resource="http://purl.org/dc/dcmitype/StillImage" /><dc:title></dc:title></cc:Work></rdf:RDF></metadata><defs
     id="defs22" /><sodipodi:namedview
     pagecolor="#ffffff"
     bordercolor="#666666"
     borderopacity="1"
     objecttolerance="10"
     gridtolerance="10"
     guidetolerance="10"
     inkscape:pageopacity="0"
     inkscape:pageshadow="2"
     inkscape:window-width="1920"
     inkscape:window-height="1001"
     id="namedview20"
     showgrid="false"
     inkscape:zoom="5.3400704"
     inkscape:cx="56.892027"
     inkscape:cy="62.610318"
     inkscape:window-x="-9"
     inkscape:window-y="-9"
     inkscape:window-maximized="1"
     inkscape:current-layer="svg18" /><g
     id="g4"><path
       d="M48.4,87.9c-0.1,0-0.3,0-0.4-0.1c-6.7-1.8-6.4-8.1-6.2-13.3c0.1-2.4,0.2-4.7-0.3-6.4c-0.5-1.5-1.5-2.4-2.6-3.4   c-1.1-1-2.3-2.1-3-3.7c-0.9-1.9-1-3.9-1-5.9c0-1.2,0-2.3-0.3-3.3c-0.4-1.7-1.2-2.1-2.8-2.8c-0.7-0.3-1.5-0.7-2.4-1.2   c-1.1-0.7-2.1-1.5-3-2.3c-0.6-0.5-1.2-1.1-1.9-1.5c-1.1-0.8-1.8-1-3.1-1.3c-0.3-0.1-0.6-0.1-0.9-0.2c-3.9-1-4.8-4.3-5.6-6.9   c-0.9-3-1.8-7-1.5-11.2c0.1-0.8,0.8-1.5,1.6-1.4c0.8,0.1,1.5,0.8,1.4,1.6c-0.2,3,0.2,6.1,1.4,10.2c0.8,2.9,1.4,4.2,3.4,4.8   c0.3,0.1,0.6,0.1,0.8,0.2c1.4,0.4,2.6,0.7,4.2,1.8c0.7,0.5,1.4,1.1,2,1.7c0.9,0.8,1.7,1.5,2.6,2c0.6,0.4,1.3,0.7,2,1   c1.8,0.8,3.9,1.7,4.6,5c0.3,1.3,0.3,2.6,0.3,3.9c0,1.7,0.1,3.3,0.7,4.6c0.5,1.1,1.4,1.9,2.3,2.7c1.3,1.2,2.8,2.5,3.5,4.8   c0.7,2.2,0.6,4.9,0.5,7.5c-0.2,4.1-0.1,7.1,1.5,8.8c-0.3-1.9-0.4-4,0.7-5.4c1.1-1.4,2.7-2.1,4.3-2.7c1-0.4,1.9-0.8,2.5-1.3   c1.6-1.2,1.9-2.3,2.3-4.5l0.1-0.3c0.5-2,2-2.9,3.2-3.6c0.5-0.3,1-0.6,1.4-0.9c1.7-1.5,4.2-5,4.2-7.5c0-0.8-0.2-1.4-0.7-1.9   c-0.8-0.7-1.9-1.2-3.1-1.7c-0.7-0.3-1.4-0.6-2.1-1c-1.4-0.8-2.3-1.9-3.1-2.8c-0.5-0.6-1-1.2-1.6-1.7c-0.9-0.7-2.2-0.8-3.6-1   c-0.8-0.1-1.5-0.2-2.3-0.3c-1.3-0.3-2.6-0.8-3.7-1.2c-1.1-0.4-2.1-0.8-3.1-1.1c-2.2-0.6-4.3-0.1-6.7,0.4c-2.9,0.6-4.8,0.8-5.8-3.1   c-0.2-0.7-0.9-1-2.3-1.4c-1.8-0.5-5.2-1.5-4-6.1c0.6-2.5,2.6-4.5,5.2-5.2c1.9-0.6,3.8-0.4,5.5,0.3c0.8-3,2.7-5.5,4.4-7.7   c2.9-3.7,5.1-4.1,9.5-4h0.2c0.1,0,0.3,0,0.5,0c-0.2-0.2-0.5-0.4-0.7-0.5c-0.7-0.5-1.4-0.9-1.8-1.6c-0.6-0.9-1.1-2-1.5-3   c-0.9-2.1-1.6-3.5-2.8-3.7c-0.8-0.1-1.4-0.9-1.3-1.8s0.9-1.4,1.8-1.3c3,0.5,4.2,3.3,5.1,5.5c0.4,0.9,0.8,1.8,1.2,2.4   c0.2,0.2,0.7,0.6,1.1,0.9c0.9,0.6,2,1.4,2.3,2.5c0.4,1.2,0,2-0.3,2.4c-0.9,1.2-2.5,1.2-3.6,1.1h-0.2c-3.7-0.1-4.9,0.1-7.1,2.8   c-1.9,2.4-4,5.3-4.2,8.4c0,0.6-0.4,1.1-1,1.3c-0.5,0.2-1.2,0.1-1.6-0.3c-1.2-1.1-3-1.5-4.7-1c-1.6,0.5-2.7,1.6-3.1,3.1   c-0.4,1.8-0.1,1.9,1.9,2.4c1.6,0.5,3.8,1.1,4.5,3.6c0.2,0.8,0.3,1.1,0.4,1.2c0.3,0,1.2-0.2,1.8-0.3c2.6-0.5,5.1-1.1,8-0.3   c1.2,0.3,2.3,0.7,3.4,1.2c1.1,0.4,2.2,0.9,3.3,1.1c0.6,0.1,1.2,0.2,1.9,0.3c1.7,0.2,3.6,0.4,5.2,1.7c0.8,0.7,1.5,1.4,2,2.1   c0.7,0.8,1.3,1.6,2.2,2.1c0.6,0.3,1.2,0.6,1.8,0.9c1.4,0.6,2.8,1.2,3.9,2.3c1.1,1.1,1.7,2.5,1.7,4.2c-0.1,3.8-3.3,8-5.3,9.7   c-0.6,0.5-1.3,0.9-1.8,1.3c-1,0.6-1.6,1-1.8,1.7l-0.1,0.3c-0.5,2.4-1,4.3-3.5,6.2c-0.9,0.7-2.1,1.2-3.2,1.7   c-1.2,0.5-2.5,1.1-3.1,1.8c-0.6,0.7-0.1,3.1,0.1,4.5c0.1,0.6,0.2,1.2,0.3,1.7c0.1,0.5-0.1,1-0.5,1.3C49.1,87.7,48.7,87.9,48.4,87.9   z"
       id="path2" /></g><g
     id="g8"><path
       d="M50,95C25.2,95,5,74.8,5,50S25.2,5,50,5s45,20.2,45,45S74.8,95,50,95z M50,8.1C26.9,8.1,8.1,26.9,8.1,50   c0,23.1,18.8,41.9,41.9,41.9c23.1,0,41.9-18.8,41.9-41.9C91.9,26.9,73.1,8.1,50,8.1z"
       id="path6" /></g><g
     id="g12"><path
       d="M84.9,54.7c-1.2,0-2.4-0.4-3.4-1.1c-3.6-2.5-4.6-8.3-4.8-9.4c-0.3-2.1-0.2-4.4-0.1-6.7c0.1-3.9,0.3-7.9-1.6-10.9   c-0.4-0.7-1.2-1.3-1.9-2c-1.2-1-2.5-2.1-2.3-3.7c0.1-0.9,0.8-1.6,1.6-2.2c-0.9-0.5-1.9-0.8-2.9-1.1c-2.8-0.8-6.2-1.8-6-7.2   c0-0.8,0.7-1.5,1.6-1.5c0.8,0,1.5,0.7,1.5,1.6c-0.1,3,1.1,3.3,3.8,4.1c1.9,0.6,4.2,1.2,5.9,3.3c0.3,0.4,0.4,0.9,0.3,1.3   s-0.4,0.9-0.9,1.1c-1,0.4-1.5,0.8-1.8,1c0.3,0.3,0.7,0.7,1.1,1c0.9,0.7,1.9,1.6,2.6,2.7c2.3,3.8,2.2,8.3,2,12.7   c-0.1,2.2-0.2,4.3,0.1,6.1c0.4,2.7,1.6,6.1,3.5,7.3c0.8,0.5,1.6,0.7,2.5,0.4c0.7-0.2,1.4-1,2-1.8c0.9-1.1,1.8-2.4,3.4-2.3   c1.6,0,2.8,1.5,3.5,2.5c0.5,0.7,0.3,1.6-0.4,2.1c-0.7,0.5-1.6,0.3-2.1-0.4c-0.6-0.8-0.9-1.1-1.1-1.2c-0.3,0.2-0.7,0.7-1,1.1   c-0.9,1.1-2,2.5-3.8,2.9C85.9,54.6,85.4,54.7,84.9,54.7z"
       id="path10" /></g></svg>